# xmcd
#
# Track frame offsets:
# 150
# 22134
# 39129
# 53136
# 65581
# 82503
# 96104
# 110411
# 129705
# 149500
# 163734
# 183888
# 197822
# 218185
# 233551
# 249988
# 260946
# 283158
#
# Disc length: 4052 seconds
#
# Revision: 1
# Processed by: cddbd v1.5.2PL0 Copyright (c) Steve Scherf et al.
# Submitted via: CedeCatalogueitor 2.6.0.6 http://personales.ya.com/cdcatalogueitor
#
DISCID=040fd212
DTITLE=Varios Artistas - BCore 2004: Dándolo Todo
DYEAR=1900
DGENRE=
TTITLE0=Standstill: Por Todas Las Cosas
TTITLE1=Aina: International Event
TTITLE2=Half Foot Outside: Star Acting Mean
TTITLE3=Tokyo Sex Destruction: Revolution
TTITLE4=Delorean: Ncgaps
TTITLE5=Nueva Vulcano: La Venda Negra
TTITLE6=It's Not Not: Ups And Downs
TTITLE7=Les Philppes: Swwining In My Eyes
TTITLE8=Madee: Economy
TTITLE9=Happy Meals: Gear Whee
TTITLE10=Nisei: The New Meather Forecast
TTITLE11=G.A.S. Drummers: Keep It Like This
TTITLE12=Maple: For You
TTITLE13=The Unfinished Sympathy: Your Weight On My Shoulder
TTITLE14=Zeidun: Zulo
TTITLE15=No More Lies: Anxius Search
TTITLE16=Getreal: Balckout
TTITLE17=Shanty RD: ...
EXTD=
EXTT0=
EXTT1=
EXTT2=
EXTT3=
EXTT4=
EXTT5=
EXTT6=
EXTT7=
EXTT8=
EXTT9=
EXTT10=
EXTT11=
EXTT12=
EXTT13=
EXTT14=
EXTT15=
EXTT16=
EXTT17=
PLAYORDER=
